<svg width="25" height="25" viewBox="0 0 25 25" xmlns="http://www.w3.org/2000/svg">
    <path fill-rule="evenodd" clip-rule="evenodd" d="M3.12573 0.686277H21.8743C23.218 0.686277 24.3137 1.78201 24.3137 3.12572V21.8743C24.3137 23.218 23.218 24.3137 21.8743 24.3137H3.12573C1.78201 24.3137 0.686279 23.218 0.686279 21.8743V3.12572C0.686279 1.78201 1.78201 0.686277 3.12573 0.686277ZM6.94349 13.8178V17.0358H4.97694V7.80277H8.15456C10.4498 7.80277 11.5975 8.77739 11.5975 10.7209C11.5975 11.6667 11.2514 12.4279 10.5594 12.9931C9.86736 13.564 8.99654 13.8351 7.95848 13.812H6.94349V13.8178ZM6.94349 9.33103V12.3126H7.79701C8.95617 12.3126 9.53288 11.8108 9.53288 10.8016C9.53288 9.82122 8.96194 9.33103 7.81431 9.33103H6.94349ZM20.0288 7.80277L17.1453 14.1465C16.5571 15.4441 16.0035 16.2745 15.496 16.6436C14.9827 17.0127 14.4291 17.1972 13.8293 17.1972C13.3449 17.1972 12.9469 17.128 12.6355 16.9839V15.1788C12.9873 15.4037 13.3449 15.519 13.7197 15.519C14.2618 15.519 14.7405 15.075 15.1557 14.1984L12.1165 7.80854H14.3541L15.9631 11.6494C16.0438 11.8339 16.113 12.0761 16.1765 12.3818H16.188C16.2341 12.1684 16.3091 11.9262 16.4129 11.6667L17.9585 7.80854H20.0346L20.0288 7.80277Z"/>
</svg>
