<svg height="512" viewBox="0 0 128 128" width="512" xmlns="http://www.w3.org/2000/svg"><path d="m116.5 13.035h-101a8.009 8.009 0 0 0 -8 8v70.55a8.009 8.009 0 0 0 8 8h38.666l-1.208 8.078a5.407 5.407 0 0 1 -5.314 4.58h-.514a5.729 5.729 0 0 0 -5.722 5.722 1 1 0 0 0 1 1h47.184a1 1 0 0 0 1-1 5.729 5.729 0 0 0 -5.722-5.722h-.514a5.407 5.407 0 0 1 -5.314-4.58l-1.208-8.078h38.666a8.009 8.009 0 0 0 8-8v-70.55a8.009 8.009 0 0 0 -8-8z" fill="#e6e7e8"/><rect fill="#6dc9f7" height="84.549" rx="7" transform="matrix(-1 0 0 -1 124 104.62)" width="115" x="4.5" y="10.035"/><rect fill="#d4fbff" height="64.78" rx="5" transform="matrix(-1 0 0 -1 124 99.418)" width="100.433" x="11.783" y="17.319"/><path d="m14.783 77.1v-54.781a5 5 0 0 1 5-5h-3a5 5 0 0 0 -5 5v54.781a5 5 0 0 0 5 5h3a5 5 0 0 1 -5-5z" fill="#fff"/><g fill="#0089ef"><path d="m59.169 57.624-12.654 12.654a4.123 4.123 0 1 0 5.831 5.831l12.654-12.653z"/><path d="m98.488 31.123-7.052 7.052-6.987-6.987 7.051-7.052a10.824 10.824 0 0 0 -13.312 14.464l-12.369 12.374 5.832 5.831 12.368-12.368a10.824 10.824 0 0 0 14.469-13.314z"/><path d="m40.485 41.478-2.951-1.056a3.382 3.382 0 0 1 -2.046-2.046l-1.056-2.951a3.357 3.357 0 0 1 -.166-.739l-4.13 4.131 6.957 6.958 4.131-4.131a3.357 3.357 0 0 1 -.739-.166z"/><path d="m67.423 26.889-8.91-3.629a16.943 16.943 0 0 0 -18.367 3.711l-.059.059a3.384 3.384 0 0 1 3.533-.793l2.951 1.056a3.382 3.382 0 0 1 2.046 2.046l1.056 2.951a3.376 3.376 0 0 1 .177.827 16.065 16.065 0 0 1 13.395-4.157l3.462.528a1.357 1.357 0 0 0 .716-2.6z"/></g><path d="m68.541 45.17h5.7a1.855 1.855 0 0 1 1.855 1.855v29.711a4.483 4.483 0 0 1 -4.483 4.483h-.44a4.483 4.483 0 0 1 -4.483-4.483v-29.711a1.855 1.855 0 0 1 1.855-1.855z" fill="#fa759e" transform="matrix(.707 -.707 .707 .707 -23.776 68.989)"/><path d="m48.857 35.846-4.816 4.816 1.48 1.042a22.853 22.853 0 0 1 3.013 2.534l8.166 8.162 3.9-3.9-8.161-8.161a23.008 23.008 0 0 1 -2.539-3.013z" fill="#ffd7e5"/><path d="m35.216 27.295h3.084a1.214 1.214 0 0 1 1.214 1.214v1.324a0 0 0 0 1 0 0h-5.514a0 0 0 0 1 0 0v-1.324a1.214 1.214 0 0 1 1.216-1.214z" fill="#6dc9f7" transform="matrix(.707 -.707 .707 .707 -9.431 34.358)"/><path d="m40.087 27.03-4.862 4.862a3.384 3.384 0 0 0 -.793 3.533l1.056 2.951a3.382 3.382 0 0 0 2.046 2.046l2.951 1.056a3.384 3.384 0 0 0 3.533-.793l4.862-4.862a3.383 3.383 0 0 0 .793-3.532l-1.056-2.952a3.382 3.382 0 0 0 -2.046-2.046l-2.951-1.056a3.384 3.384 0 0 0 -3.533.793z" fill="#6dc9f7"/><rect fill="#6dc9f7" height="13.732" rx="2.205" transform="matrix(.707 -.707 .707 .707 -22.403 35.188)" width="6.621" x="27.964" y="37.77"/><path d="m80.87 109.243h-.513a6.374 6.374 0 0 1 -6.3-5.432l-1.379-9.226h-21.352l-1.379 9.226a6.374 6.374 0 0 1 -6.3 5.432h-.517a4.722 4.722 0 0 0 -4.722 4.722h47.184a4.722 4.722 0 0 0 -4.722-4.722z" fill="#0089ef"/><circle cx="62" cy="88.113" fill="#0089ef" r="3.121"/><path d="m107.217 16.318h-90.434a6.007 6.007 0 0 0 -6 6v54.782a6.007 6.007 0 0 0 6 6h90.434a6.007 6.007 0 0 0 6-6v-9.42a1 1 0 0 0 -2 0v9.42a4 4 0 0 1 -4 4h-90.434a4 4 0 0 1 -4-4v-54.782a4.005 4.005 0 0 1 4-4h90.434a4.005 4.005 0 0 1 4 4v27.737a1 1 0 0 0 2 0v-27.737a6.007 6.007 0 0 0 -6-6z" fill="#3a2c60"/><path d="m112.217 53.055a1 1 0 0 0 -1 1v9.625a1 1 0 0 0 2 0v-9.625a1 1 0 0 0 -1-1z" fill="#3a2c60"/><path d="m96.55 42.806a11.788 11.788 0 0 0 2.89-11.988 1 1 0 0 0 -1.659-.4l-6.345 6.344-5.573-5.572 6.345-6.346a1 1 0 0 0 -.4-1.659 11.824 11.824 0 0 0 -14.787 15.172l-11.2 11.2-1.831-1.83a2.848 2.848 0 0 0 -3.28-.528l-7.57-7.567a22.049 22.049 0 0 1 -2.424-2.881l-.609-.867a4.4 4.4 0 0 0 .749-2.3 15.1 15.1 0 0 1 12.238-3.631l3.462.527a2.357 2.357 0 0 0 1.244-4.518l-8.91-3.628a17.9 17.9 0 0 0 -19.279 3.766l-.235-.235a2.215 2.215 0 0 0 -3.131 0l-2.182 2.185a2.218 2.218 0 0 0 0 3.131l.246.246a4.4 4.4 0 0 0 -1.062 2.864l-3.295 3.3a3.211 3.211 0 0 0 -3.459.706l-1.563 1.559a3.209 3.209 0 0 0 0 4.532l6.592 6.592a3.208 3.208 0 0 0 4.532 0l1.563-1.563a3.2 3.2 0 0 0 .707-3.459l3.285-3.285h.007a4.415 4.415 0 0 0 2.468-.758l.862.607a22.021 22.021 0 0 1 2.881 2.422l7.567 7.568a2.816 2.816 0 0 0 .529 3.281l1.831 1.831-11.946 11.947a5.123 5.123 0 1 0 7.245 7.245l11.947-11.946 11.933 11.93a5.48 5.48 0 0 0 7.753 0l.314-.308a5.489 5.489 0 0 0 0-7.753l-11.935-11.934 11.2-11.2a11.786 11.786 0 0 0 12.285-2.799zm-65-3.99 2.234-2.234.762 2.131a4.368 4.368 0 0 0 2.654 2.651l2.131.762-2.238 2.234zm9.272 1.721-2.951-1.056a2.379 2.379 0 0 1 -1.442-1.442l-1.056-2.951a2.4 2.4 0 0 1 .559-2.489l.481-.48 3.9-3.9.481-.482a2.4 2.4 0 0 1 2.488-.559l2.951 1.056a2.379 2.379 0 0 1 1.442 1.442l1.055 2.951a2.393 2.393 0 0 1 -.558 2.489l-4.862 4.862a2.4 2.4 0 0 1 -2.488.559zm17.314-16.35 8.91 3.628a.357.357 0 0 1 -.189.684l-3.457-.528a17.112 17.112 0 0 0 -13 3.393l-.841-2.364a4.369 4.369 0 0 0 -2.651-2.65l-2.952-1.05-.028-.007a15.891 15.891 0 0 1 14.208-1.106zm-22.658 5.277 2.181-2.181a.214.214 0 0 1 .3 0l.229.229-2.481 2.488-.229-.229a.214.214 0 0 1 0-.307zm.722 18.536-1.56 1.565a1.2 1.2 0 0 1 -1.7 0l-6.592-6.592a1.208 1.208 0 0 1 0-1.7l1.563-1.563a1.207 1.207 0 0 1 1.7 0l6.589 6.59a1.2 1.2 0 0 1 0 1.7zm9.9-7.114-.509-.358 3.135-3.134.358.507a23.9 23.9 0 0 0 2.645 3.145l7.45 7.454-2.479 2.484-7.459-7.454a24 24 0 0 0 -3.141-2.644zm5.539 34.514a3.2 3.2 0 0 1 -4.417 0 3.125 3.125 0 0 1 0-4.417l11.947-11.945 4.417 4.418zm31.944-.325-.311.311a3.565 3.565 0 0 1 -4.925 0l-21.01-21.01a.855.855 0 0 1 0-1.208l4.028-4.027a.856.856 0 0 1 1.209 0l21.009 21.011a3.486 3.486 0 0 1 0 4.925zm-.271-31.345-11.661 11.661-4.418-4.417 11.667-11.662a1 1 0 0 0 .216-1.091 9.815 9.815 0 0 1 10.402-13.516l-5.776 5.777a1 1 0 0 0 0 1.414l6.987 6.986a1 1 0 0 0 1.414 0l5.776-5.775a9.823 9.823 0 0 1 -13.519 10.406 1 1 0 0 0 -1.088.217z" fill="#3a2c60"/><path d="m112.5 9.035h-101a8.009 8.009 0 0 0 -8 8v70.55a8.009 8.009 0 0 0 8 8h38.666l-1.208 8.078a5.406 5.406 0 0 1 -5.314 4.58h-.514a5.729 5.729 0 0 0 -5.722 5.722 1 1 0 0 0 1 1h47.184a1 1 0 0 0 1-1 5.729 5.729 0 0 0 -5.722-5.722h-.514a5.406 5.406 0 0 1 -5.314-4.58l-1.208-8.078h38.666a8.009 8.009 0 0 0 8-8v-70.55a8.009 8.009 0 0 0 -8-8zm-39.437 94.924a7.42 7.42 0 0 0 7.293 6.284h.514a3.73 3.73 0 0 1 3.586 2.722h-44.912a3.73 3.73 0 0 1 3.586-2.722h.514a7.42 7.42 0 0 0 7.293-6.284l1.251-8.374h19.624zm45.437-16.374a6.007 6.007 0 0 1 -6 6h-101a6.007 6.007 0 0 1 -6-6v-70.55a6.007 6.007 0 0 1 6-6h101a6.007 6.007 0 0 1 6 6z" fill="#3a2c60"/></svg>