<svg id="Layer" enable-background="new 0 0 64 64" height="512" viewBox="0 0 64 64" width="512" xmlns="http://www.w3.org/2000/svg"><path d="m16 56h32c4.411 0 8-3.589 8-8v-32c0-4.411-3.589-8-8-8h-32c-4.411 0-8 3.589-8 8v8c0 1.104.896 2 2 2s2-.896 2-2v-8c0-2.206 1.794-4 4-4h32c2.206 0 4 1.794 4 4v32c0 2.206-1.794 4-4 4h-32c-2.206 0-4-1.794-4-4v-8c0-1.104-.896-2-2-2s-2 .896-2 2v8c0 4.411 3.589 8 8 8z" fill="#666235"/><path d="m16 32c0 1.104.896 2 2 2h23.172l-4.586 4.586c-.781.781-.781 2.047 0 2.828.39.391.902.586 1.414.586s1.024-.195 1.414-.586l8-8c.781-.781.781-2.047 0-2.828l-8-8c-.78-.781-2.048-.781-2.828 0-.781.781-.781 2.047 0 2.828l4.586 4.586h-23.172c-1.104 0-2 .896-2 2z" fill="#666235"/></svg>