<?xml version="1.0"?>
<svg xmlns="http://www.w3.org/2000/svg" viewBox="0 0 128 128" width="512" height="512"><path d="M119.37,23.414H61.328a5.324,5.324,0,0,1-4.377-2.292L54.37,17.4a7.459,7.459,0,0,0-6.132-3.213H12.566a5,5,0,0,0-5,5v93.829a5,5,0,0,0,5,5h106.8a5,5,0,0,0,5-5v-84.6A5,5,0,0,0,119.37,23.414Z" fill="#e6e7e8"/><path d="M4.63,33H119.305a0,0,0,0,1,0,0v75.687a4,4,0,0,1-4,4H8.63a4,4,0,0,1-4-4V33A0,0,0,0,1,4.63,33Z" fill="#d4fbff"/><path d="M53.807,92.711a2.768,2.768,0,0,1,0,3.821,2.829,2.829,0,0,1-1.91.655H47.8a6.551,6.551,0,0,1-4.886-1.746A6.63,6.63,0,0,1,41.2,90.582V79.993a5.2,5.2,0,0,0-.764-3.167A3.686,3.686,0,0,0,37.7,75.68a2.526,2.526,0,0,1-2.62-2.675,2.563,2.563,0,0,1,.683-1.856,2.741,2.741,0,0,1,1.937-.764,3.686,3.686,0,0,0,2.73-1.146,5.2,5.2,0,0,0,.764-3.167V55.483a6.627,6.627,0,0,1,1.719-4.858A6.548,6.548,0,0,1,47.8,48.878H51.9a2.829,2.829,0,0,1,1.91.655,2.768,2.768,0,0,1,0,3.821,2.829,2.829,0,0,1-1.91.655H50.15a2.335,2.335,0,0,0-1.719.573,2.5,2.5,0,0,0-.573,1.829v10.48a6.56,6.56,0,0,1-1.283,4.122,5.21,5.21,0,0,1-3.03,2.047,5.251,5.251,0,0,1,3.03,2.02,6.441,6.441,0,0,1,1.283,4.094v10.48a2.5,2.5,0,0,0,.573,1.829,2.335,2.335,0,0,0,1.719.573H51.9A2.829,2.829,0,0,1,53.807,92.711Z" fill="#fa759e"/><path d="M88.169,71.149a2.567,2.567,0,0,1,.682,1.856,2.731,2.731,0,0,1-.654,1.883,2.651,2.651,0,0,1-1.966.792A3.683,3.683,0,0,0,83.5,76.826a5.19,5.19,0,0,0-.764,3.167V90.582a6.63,6.63,0,0,1-1.72,4.859,6.55,6.55,0,0,1-4.886,1.746H72.038a2.829,2.829,0,0,1-1.91-.655,2.771,2.771,0,0,1,0-3.821,2.829,2.829,0,0,1,1.91-.655h1.748a2.336,2.336,0,0,0,1.719-.573,2.5,2.5,0,0,0,.573-1.829V79.174a6.429,6.429,0,0,1,1.283-4.094,5.242,5.242,0,0,1,3.029-2.02,5.2,5.2,0,0,1-3.029-2.047,6.548,6.548,0,0,1-1.283-4.122V56.411a2.5,2.5,0,0,0-.573-1.829,2.336,2.336,0,0,0-1.719-.573H72.038a2.829,2.829,0,0,1-1.91-.655,2.771,2.771,0,0,1,0-3.821,2.829,2.829,0,0,1,1.91-.655h4.094a6.546,6.546,0,0,1,4.886,1.747,6.628,6.628,0,0,1,1.72,4.858V66.072a5.188,5.188,0,0,0,.764,3.167,3.683,3.683,0,0,0,2.729,1.146A2.747,2.747,0,0,1,88.169,71.149Z" fill="#fa759e"/><path d="M115.305,109.687H8.63a4,4,0,0,1-4-4v3a4,4,0,0,0,4,4H115.305a4,4,0,0,0,4-4v-3A4,4,0,0,1,115.305,109.687Z" fill="#fff"/><path d="M52.074,17.466,49.5,13.741a6.391,6.391,0,0,0-5.254-2.753H8.63a4,4,0,0,0-4,4V33H119.305V24.219a4,4,0,0,0-4-4H57.328A6.39,6.39,0,0,1,52.074,17.466Z" fill="#6dc9f7"/><path d="M47.366,71.623a7.553,7.553,0,0,0,1.492-4.732V56.411a1.679,1.679,0,0,1,.28-1.122,1.518,1.518,0,0,1,1.013-.28H51.9a3.818,3.818,0,0,0,2.562-.9,3.76,3.76,0,0,0,0-5.34,3.818,3.818,0,0,0-2.561-.9H47.8a7.531,7.531,0,0,0-5.6,2.046A7.614,7.614,0,0,0,40.2,55.482v10.59a4.2,4.2,0,0,1-.552,2.553,2.946,2.946,0,0,1-1.985.761,3.71,3.71,0,0,0-2.614,1.07,3.541,3.541,0,0,0-.962,2.549,3.517,3.517,0,0,0,3.537,3.672,2.984,2.984,0,0,1,2.023.763,4.191,4.191,0,0,1,.553,2.553v10.59A7.618,7.618,0,0,0,42.2,96.142a7.536,7.536,0,0,0,5.6,2.045H51.9a3.818,3.818,0,0,0,2.562-.9,3.76,3.76,0,0,0,0-5.339h0a3.818,3.818,0,0,0-2.561-.895H50.151a1.512,1.512,0,0,1-1.014-.281,1.681,1.681,0,0,1-.279-1.121V79.174a7.436,7.436,0,0,0-1.5-4.711,7.185,7.185,0,0,0-1.441-1.407A7.174,7.174,0,0,0,47.366,71.623Zm-4.035,2.414A4.246,4.246,0,0,1,45.787,75.7a5.429,5.429,0,0,1,1.071,3.478v10.48a3.453,3.453,0,0,0,.865,2.536,3.3,3.3,0,0,0,2.428.866H51.9a1.852,1.852,0,0,1,1.26.415,1.807,1.807,0,0,1,0,2.3,1.856,1.856,0,0,1-1.26.414H47.8a5.555,5.555,0,0,1-4.173-1.448A5.63,5.63,0,0,1,42.2,90.583V79.993a6.053,6.053,0,0,0-.974-3.781,4.664,4.664,0,0,0-3.476-1.531,1.708,1.708,0,0,1-1.247-.473,1.684,1.684,0,0,1-.416-1.2,1.575,1.575,0,0,1,.4-1.163,1.827,1.827,0,0,1,1.3-.46,4.638,4.638,0,0,0,3.437-1.529,6.058,6.058,0,0,0,.973-3.781V55.482a5.628,5.628,0,0,1,1.433-4.155A5.551,5.551,0,0,1,47.8,49.878H51.9a1.852,1.852,0,0,1,1.259.414,1.805,1.805,0,0,1,0,2.3,1.852,1.852,0,0,1-1.26.415H50.151a3.292,3.292,0,0,0-2.426.865,3.449,3.449,0,0,0-.867,2.537v10.48A5.531,5.531,0,0,1,45.782,70.4a4.2,4.2,0,0,1-2.451,1.681,1,1,0,0,0,0,1.954Z" fill="#3a2c60"/><path d="M76.573,74.463a7.437,7.437,0,0,0-1.495,4.711v10.48a1.673,1.673,0,0,1-.281,1.122,1.508,1.508,0,0,1-1.012.28H72.038a3.81,3.81,0,0,0-2.56.895,3.756,3.756,0,0,0,0,5.34,3.81,3.81,0,0,0,2.561.9h4.094a7.54,7.54,0,0,0,5.6-2.045,7.618,7.618,0,0,0,2-5.559V79.993a4.2,4.2,0,0,1,.553-2.553,2.951,2.951,0,0,1,1.983-.761,3.618,3.618,0,0,0,2.671-1.126,3.712,3.712,0,0,0,.908-2.548,3.55,3.55,0,0,0-.961-2.548l0,0a3.685,3.685,0,0,0-2.574-1.065,2.985,2.985,0,0,1-2.024-.764,4.189,4.189,0,0,1-.554-2.553V55.482a7.616,7.616,0,0,0-2.006-5.559,7.536,7.536,0,0,0-5.6-2.045H72.038a3.81,3.81,0,0,0-2.56.9,3.756,3.756,0,0,0,0,5.34,3.81,3.81,0,0,0,2.561.9h1.747a1.518,1.518,0,0,1,1.013.28,1.679,1.679,0,0,1,.28,1.122v10.48a7.543,7.543,0,0,0,1.491,4.732,7.174,7.174,0,0,0,1.446,1.433A7.215,7.215,0,0,0,76.573,74.463Zm4.03-2.38A4.205,4.205,0,0,1,78.152,70.4a5.536,5.536,0,0,1-1.074-3.511V56.411a3.451,3.451,0,0,0-.866-2.536,3.294,3.294,0,0,0-2.427-.866H72.038a1.849,1.849,0,0,1-1.26-.415,1.8,1.8,0,0,1,0-2.3,1.849,1.849,0,0,1,1.259-.414h4.094a5.559,5.559,0,0,1,4.174,1.448,5.634,5.634,0,0,1,1.431,4.156v10.59a6.051,6.051,0,0,0,.975,3.781,4.668,4.668,0,0,0,3.476,1.531,1.787,1.787,0,0,1,1.26.458,1.6,1.6,0,0,1,.4,1.163,1.513,1.513,0,0,1-1.7,1.679,4.632,4.632,0,0,0-3.438,1.528,6.06,6.06,0,0,0-.974,3.781v10.59a5.632,5.632,0,0,1-1.43,4.155,5.559,5.559,0,0,1-4.175,1.449H72.038a1.853,1.853,0,0,1-1.26-.414,1.8,1.8,0,0,1,0-2.3,1.849,1.849,0,0,1,1.259-.414h1.747a3.293,3.293,0,0,0,2.427-.866,3.451,3.451,0,0,0,.866-2.536V79.174a5.421,5.421,0,0,1,1.07-3.478A4.238,4.238,0,0,1,80.6,74.037a1,1,0,0,0,0-1.954Z" fill="#3a2c60"/><path d="M119.305,73.25a1,1,0,0,0-1,1V86.5a1,1,0,0,0,2,0V74.25A1,1,0,0,0,119.305,73.25Z" fill="#3a2c60"/><path d="M115.305,19.219H57.328A5.391,5.391,0,0,1,52.9,16.9l-2.578-3.726A7.4,7.4,0,0,0,44.24,9.988H8.63a5.006,5.006,0,0,0-5,5v93.7a5.006,5.006,0,0,0,5,5H115.305a5.006,5.006,0,0,0,5-5V91.167a1,1,0,0,0-2,0v17.52a3,3,0,0,1-3,3H8.63a3,3,0,0,1-3-3V34H118.305V69.25a1,1,0,0,0,2,0V24.219A5.006,5.006,0,0,0,115.305,19.219ZM5.63,14.988a3,3,0,0,1,3-3H44.24a5.393,5.393,0,0,1,4.433,2.322l2.578,3.725a7.394,7.394,0,0,0,6.077,3.184h57.977a3,3,0,0,1,3,3V32H5.63Z" fill="#3a2c60"/><circle cx="40.249" cy="22.416" r="3.257" fill="#fff"/><circle cx="28.417" cy="22.416" r="3.257" fill="#d4fbff"/><circle cx="16.586" cy="22.416" r="3.257" fill="#fa759e"/></svg>
