<svg width="476" height="476" viewBox="0 0 476 476" fill="none" xmlns="http://www.w3.org/2000/svg">
<g clip-path="url(#clip0)">
<path d="M464.524 412.846L366.595 314.921C390.195 280.853 402.001 242.881 402.001 201.004C402.001 173.786 396.717 147.755 386.149 122.917C375.588 98.0751 361.311 76.6631 343.324 58.6761C325.337 40.6891 303.928 26.4121 279.091 15.8501C254.246 5.28505 228.217 0.00305176 200.999 0.00305176C173.783 0.00305176 147.752 5.28505 122.914 15.8501C98.072 26.4121 76.66 40.6891 58.673 58.6761C40.684 76.6631 26.409 98.0791 15.846 122.917C5.282 147.758 0 173.786 0 201.004C0 228.22 5.282 254.242 15.846 279.087C26.408 303.925 40.684 325.334 58.673 343.328C76.66 361.314 98.076 375.585 122.914 386.153C147.755 396.716 173.783 401.997 200.999 401.997C242.878 401.997 280.851 390.19 314.921 366.592L412.85 464.233C419.702 471.464 428.256 475.082 438.543 475.082C448.632 475.082 457.242 471.516 464.381 464.377C471.52 457.239 475.085 448.629 475.085 438.54C475.085 428.451 471.567 419.889 464.524 412.846ZM291.363 291.358C266.334 316.391 236.215 328.907 200.999 328.907C165.789 328.907 135.67 316.388 110.639 291.358C85.608 266.329 73.093 236.214 73.093 200.998C73.093 165.788 85.611 135.664 110.639 110.638C135.665 85.6061 165.789 73.0921 200.999 73.0921C236.211 73.0921 266.33 85.6111 291.363 110.638C316.396 135.664 328.911 165.788 328.911 200.998C328.911 236.214 316.392 266.329 291.363 291.358Z" fill="#A98C6A"/>
<path d="M283.232 182.728H219.278V118.775C219.278 116.3 218.373 114.16 216.566 112.351C214.757 110.542 212.615 109.639 210.143 109.639H191.87C189.396 109.639 187.255 110.542 185.447 112.351C183.64 114.16 182.735 116.3 182.735 118.775V182.728H118.781C116.307 182.728 114.166 183.633 112.358 185.44C110.549 187.249 109.646 189.389 109.646 191.864V210.135C109.646 212.61 110.549 214.752 112.358 216.559C114.167 218.368 116.304 219.272 118.781 219.272H182.735V283.226C182.735 285.704 183.64 287.842 185.447 289.653C187.256 291.457 189.396 292.36 191.87 292.36H210.142C212.615 292.36 214.757 291.457 216.565 289.653C218.372 287.842 219.277 285.704 219.277 283.226V219.272H283.231C285.709 219.272 287.843 218.367 289.658 216.559C291.462 214.752 292.361 212.61 292.361 210.135V191.864C292.361 189.389 291.462 187.249 289.658 185.44C287.851 183.633 285.709 182.728 283.232 182.728Z" fill="#A98C6A"/>
</g>
<defs>
<clipPath id="clip0">
<rect width="475.084" height="475.084" fill="white"/>
</clipPath>
</defs>
</svg>
